<svg width="20" height="20" viewBox="0 0 20 20" fill="none" xmlns="http://www.w3.org/2000/svg">
<g id="Iconly/Light-Outline/Call">
<g id="Call">
<mask id="mask0_122_529" style="mask-type:alpha" maskUnits="userSpaceOnUse" x="1" y="1" width="18" height="18">
<path id="Clip 2" fill-rule="evenodd" clip-rule="evenodd" d="M1.66699 1.66687H18.75V18.7498H1.66699V1.66687Z" fill="white"/>
</mask>
<g mask="url(#mask0_122_529)">
<path id="Fill 1" fill-rule="evenodd" clip-rule="evenodd" d="M3.6329 4.21734C3.63456 4.21734 3.5929 4.26068 3.5404 4.31234C3.33873 4.50818 2.92123 4.91568 2.91706 5.76818C2.9104 6.96068 3.69456 9.17484 7.4704 12.9498C11.2287 16.7065 13.4396 17.4998 14.6346 17.4998H14.6521C15.5046 17.4957 15.9112 17.0773 16.1079 16.8765C16.1679 16.8148 16.2162 16.7698 16.2504 16.7415C17.0804 15.9065 17.5054 15.2848 17.5012 14.8865C17.4954 14.4798 16.9896 13.999 16.2904 13.334C16.0679 13.1223 15.8262 12.8923 15.5712 12.6373C14.9104 11.9782 14.5829 12.0907 13.8629 12.344C12.8671 12.6932 11.5004 13.1682 9.37706 11.044C7.2504 8.91901 7.72623 7.55401 8.07456 6.55818C8.32623 5.83818 8.44123 5.50984 7.77956 4.84818C7.5204 4.58984 7.2879 4.34484 7.07373 4.11984C6.4129 3.42484 5.93623 2.92234 5.53206 2.91651H5.5254C5.12623 2.91651 4.50623 3.34318 3.62873 4.22068C3.63123 4.21818 3.63206 4.21734 3.6329 4.21734ZM14.6354 18.7498C12.5587 18.7498 9.85123 17.0965 6.58706 13.834C3.3104 10.5582 1.65456 7.84234 1.66706 5.76151C1.67456 4.38651 2.3954 3.68234 2.66623 3.41818C2.6804 3.40068 2.72873 3.35318 2.7454 3.33651C3.9404 2.14068 4.74623 1.65734 5.5479 1.66651C6.47873 1.67901 7.14123 2.37568 7.97956 3.25818C8.18706 3.47651 8.41206 3.71401 8.6629 3.96401C9.87956 5.18068 9.5329 6.17318 9.25456 6.96984C8.95123 7.83901 8.68873 8.58901 10.2604 10.1607C11.8337 11.7323 12.5837 11.4698 13.4496 11.164C14.2471 10.8857 15.2371 10.5373 16.4554 11.754C16.7021 12.0007 16.9362 12.2232 17.1521 12.429C18.0387 13.2715 18.7387 13.9373 18.7504 14.8707C18.7604 15.6665 18.2771 16.4773 17.0837 17.6715L16.5554 17.3132L17.0021 17.7498C16.7379 18.0207 16.0346 18.7423 14.6587 18.7498H14.6354Z" fill="#CC2A36"/>
</g>
</g>
</g>
</svg>
