<svg width="20" height="20" viewBox="0 0 20 20" fill="none" xmlns="http://www.w3.org/2000/svg">
<path d="M1.66821 10.0016C1.66918 14.1011 4.65022 17.5916 8.69905 18.2341V12.41H6.58488V10.0016H8.70155V8.16829C8.60692 7.29957 8.90365 6.43378 9.51125 5.80573C10.1188 5.17768 10.9743 4.85247 11.8457 4.91829C12.4712 4.92839 13.095 4.98409 13.7124 5.08496V7.13412H12.659C12.2964 7.08663 11.9318 7.20639 11.668 7.45968C11.4042 7.71297 11.2697 8.07236 11.3024 8.43662V10.0016H13.6115L13.2424 12.4108H11.3024V18.2341C15.6811 17.5421 18.7516 13.5431 18.2895 9.13418C17.8273 4.72526 13.9943 1.4499 9.56723 1.68094C5.14018 1.91198 1.66892 5.56855 1.66821 10.0016Z" fill="#CC2A36"/>
</svg>
