<svg width="20" height="20" viewBox="0 0 20 20" fill="none" xmlns="http://www.w3.org/2000/svg">
<g id="Iconly/Light-Outline/Message">
<g id="Message">
<path id="Fill 1" fill-rule="evenodd" clip-rule="evenodd" d="M9.81395 11.2206C9.25644 11.2206 8.70061 11.0365 8.23561 10.6681L4.49811 7.65479C4.22895 7.43812 4.18728 7.04395 4.40311 6.77562C4.62061 6.50812 5.01395 6.46562 5.28228 6.68145L9.01645 9.69145C9.48561 10.0631 10.1464 10.0631 10.6189 9.68812L14.3156 6.68312C14.5839 6.46395 14.9773 6.50562 15.1956 6.77395C15.4131 7.04145 15.3723 7.43479 15.1048 7.65312L11.4014 10.6631C10.9331 11.0348 10.3731 11.2206 9.81395 11.2206Z" fill="#CC2A36"/>
<g id="Group 5">
<mask id="mask0_122_519" style="mask-type:alpha" maskUnits="userSpaceOnUse" x="0" y="1" width="19" height="17">
<path id="Clip 4" fill-rule="evenodd" clip-rule="evenodd" d="M0.833252 1.66663H18.7498V17.9166H0.833252V1.66663Z" fill="white"/>
</mask>
<g mask="url(#mask0_122_519)">
<path id="Fill 3" fill-rule="evenodd" clip-rule="evenodd" d="M5.69909 16.6666H13.8824C13.8841 16.665 13.8908 16.6666 13.8958 16.6666C14.8466 16.6666 15.6899 16.3266 16.3366 15.6808C17.0874 14.9333 17.4999 13.8591 17.4999 12.6566V6.93329C17.4999 4.60579 15.9783 2.91663 13.8824 2.91663H5.70075C3.60492 2.91663 2.08325 4.60579 2.08325 6.93329V12.6566C2.08325 13.8591 2.49659 14.9333 3.24659 15.6808C3.89325 16.3266 4.73742 16.6666 5.68742 16.6666H5.69909ZM5.68492 17.9166C4.39909 17.9166 3.25075 17.45 2.36409 16.5666C1.37659 15.5816 0.833252 14.1933 0.833252 12.6566V6.93329C0.833252 3.93079 2.92575 1.66663 5.70075 1.66663H13.8824C16.6574 1.66663 18.7499 3.93079 18.7499 6.93329V12.6566C18.7499 14.1933 18.2066 15.5816 17.2191 16.5666C16.3333 17.4491 15.1841 17.9166 13.8958 17.9166H13.8824H5.70075H5.68492Z" fill="#CC2A36"/>
</g>
</g>
</g>
</g>
</svg>
