<svg width="20" height="20" viewBox="0 0 20 20" fill="none" xmlns="http://www.w3.org/2000/svg">
<g id="Iconly/Light-Outline/Send">
<g id="Send">
<mask id="mask0_128_617" style="mask-type:alpha" maskUnits="userSpaceOnUse" x="1" y="2" width="17" height="17">
<path id="Clip 2" fill-rule="evenodd" clip-rule="evenodd" d="M1.66675 2.50037H17.9159V18.7495H1.66675V2.50037Z" fill="white"/>
</mask>
<g mask="url(#mask0_128_617)">
<path id="Fill 1" fill-rule="evenodd" clip-rule="evenodd" d="M9.0042 12.3482L12.0517 17.2924C12.185 17.509 12.3934 17.5065 12.4775 17.4949C12.5617 17.4832 12.7642 17.4315 12.8375 17.1857L16.6484 4.31485C16.715 4.08735 16.5925 3.93235 16.5375 3.87735C16.4842 3.82235 16.3317 3.70485 16.1109 3.76735L3.23087 7.53902C2.9867 7.61068 2.93337 7.81568 2.9217 7.89985C2.91004 7.98568 2.9067 8.19818 3.12254 8.33402L8.12337 11.4615L12.5417 6.99652C12.7842 6.75152 13.18 6.74902 13.4259 6.99152C13.6717 7.23402 13.6734 7.63068 13.4309 7.87568L9.0042 12.3482ZM12.4125 18.7498C11.8325 18.7498 11.3009 18.4548 10.9875 17.9482L7.7567 12.7057L2.46004 9.39318C1.8892 9.03568 1.59087 8.39902 1.68337 7.72985C1.77504 7.06068 2.2342 6.52902 2.8792 6.33985L15.7592 2.56818C16.3517 2.39485 16.9867 2.55902 17.4234 2.99402C17.86 3.43318 18.0225 4.07485 17.8459 4.66985L14.035 17.5398C13.8442 18.1873 13.3109 18.6449 12.6434 18.734C12.565 18.744 12.4892 18.7498 12.4125 18.7498V18.7498Z" fill="black"/>
</g>
</g>
</g>
</svg>
