<svg width="20" height="20" viewBox="0 0 20 20" fill="none" xmlns="http://www.w3.org/2000/svg">
<path fill-rule="evenodd" clip-rule="evenodd" d="M11.333 6.80913C10.988 6.80913 10.708 6.52913 10.708 6.18413V4.16663C10.708 3.82163 10.988 3.54163 11.333 3.54163C11.678 3.54163 11.958 3.82163 11.958 4.16663V6.18413C11.958 6.52913 11.678 6.80913 11.333 6.80913" fill="#A2AAB3"/>
<path fill-rule="evenodd" clip-rule="evenodd" d="M11.333 17.7369C10.988 17.7369 10.708 17.4569 10.708 17.1119V15.426C10.708 15.0802 10.988 14.801 11.333 14.801C11.678 14.801 11.958 15.0802 11.958 15.426V17.1119C11.958 17.4569 11.678 17.7369 11.333 17.7369" fill="#A2AAB3"/>
<path fill-rule="evenodd" clip-rule="evenodd" d="M11.333 13.1877C10.988 13.1877 10.708 12.9077 10.708 12.5627V8.54517C10.708 8.20017 10.988 7.92017 11.333 7.92017C11.678 7.92017 11.958 8.20017 11.958 8.54517V12.5627C11.958 12.9077 11.678 13.1877 11.333 13.1877" fill="#A2AAB3"/>
<mask id="mask0_122_603" style="mask-type:alpha" maskUnits="userSpaceOnUse" x="0" y="3" width="19" height="15">
<path fill-rule="evenodd" clip-rule="evenodd" d="M0.833496 3.33337H18.7502V17.9165H0.833496V3.33337Z" fill="white"/>
</mask>
<g mask="url(#mask0_122_603)">
<path fill-rule="evenodd" clip-rule="evenodd" d="M2.0835 12.9615V14.5773C2.0835 15.729 3.036 16.6665 4.20683 16.6665H15.3768C16.5477 16.6665 17.5002 15.729 17.5002 14.5773V12.9615C16.4577 12.6873 15.686 11.744 15.686 10.6256C15.686 9.50646 16.4568 8.56396 17.5002 8.2898L17.4993 6.6723C17.4993 5.52063 16.5468 4.58313 15.376 4.58313H4.20766C3.03683 4.58313 2.08433 5.52063 2.08433 6.6723L2.0835 8.35396C3.13933 8.61313 3.89766 9.51813 3.89766 10.6256C3.89766 11.744 3.126 12.6873 2.0835 12.9615M15.3768 17.9165H4.20683C2.34683 17.9165 0.833496 16.4181 0.833496 14.5773V12.4173C0.833496 12.0723 1.1135 11.7923 1.4585 11.7923C2.11433 11.7923 2.64766 11.269 2.64766 10.6256C2.64766 10.0006 2.136 9.52896 1.4585 9.52896C1.29266 9.52896 1.1335 9.46313 1.01683 9.34563C0.899329 9.22896 0.833496 9.06896 0.833496 8.90396L0.834329 6.6723C0.834329 4.83146 2.34766 3.33313 4.20766 3.33313H15.376C17.236 3.33313 18.7493 4.83146 18.7493 6.6723L18.7502 8.83396C18.7502 8.99896 18.6843 9.15896 18.5668 9.27563C18.4502 9.39313 18.291 9.45896 18.1252 9.45896C17.4693 9.45896 16.936 9.9823 16.936 10.6256C16.936 11.269 17.4693 11.7923 18.1252 11.7923C18.4702 11.7923 18.7502 12.0723 18.7502 12.4173V14.5773C18.7502 16.4181 17.2368 17.9165 15.3768 17.9165" fill="#A2AAB3"/>
</g>
</svg>
