<svg width="20" height="20" viewBox="0 0 20 20" fill="none" xmlns="http://www.w3.org/2000/svg">
<mask id="mask0_122_606" style="mask-type:alpha" maskUnits="userSpaceOnUse" x="3" y="1" width="15" height="18">
<path fill-rule="evenodd" clip-rule="evenodd" d="M3.3335 1.66699H17.4725V18.63H3.3335V1.66699Z" fill="white"/>
</mask>
<g mask="url(#mask0_122_606)">
<path fill-rule="evenodd" clip-rule="evenodd" d="M10.403 2.91663C9.69634 2.91663 5.23801 4.48663 4.72384 4.91579C4.57217 5.06829 4.56634 5.33329 4.59884 7.10746C4.61384 7.96246 4.63467 9.12413 4.63467 10.7325C4.63467 15.0666 9.40301 16.9908 10.4022 17.345C11.4005 16.9891 16.1713 15.0541 16.1713 10.7325C16.1713 9.12246 16.1922 7.95996 16.208 7.10496C16.2397 5.33246 16.2338 5.06746 16.073 4.90746C15.5688 4.48663 11.1097 2.91663 10.403 2.91663M10.403 18.63C10.3422 18.63 10.2813 18.6216 10.2222 18.6033C9.94301 18.5191 3.38467 16.4675 3.38467 10.7325C3.38467 9.13496 3.36384 7.97913 3.34884 7.13079C3.31051 5.01163 3.30217 4.56996 3.84967 4.02329C4.50384 3.36746 9.45801 1.66663 10.403 1.66663C11.3472 1.66663 16.3013 3.36746 16.9572 4.02329C17.5038 4.56996 17.4955 5.01163 17.4572 7.12829C17.4422 7.97663 17.4213 9.13246 17.4213 10.7325C17.4213 16.4675 10.863 18.5191 10.5838 18.6033C10.5247 18.6216 10.4638 18.63 10.403 18.63" fill="#61BC5B"/>
</g>
<path fill-rule="evenodd" clip-rule="evenodd" d="M9.81436 12.0995V12.0995C9.64852 12.0995 9.48936 12.0337 9.37186 11.9162L7.79519 10.3379C7.55186 10.0937 7.55186 9.69702 7.79602 9.45369C8.03936 9.20952 8.43602 9.20952 8.68019 9.45369L9.81436 10.5895L12.621 7.78286C12.8652 7.53869 13.2602 7.53869 13.5044 7.78286C13.7485 8.02702 13.7485 8.42286 13.5044 8.66702L10.256 11.9162C10.1394 12.0337 9.98019 12.0995 9.81436 12.0995" fill="#61BC5B"/>
</svg>
